<?xml version="1.0" standalone="no"?>
<!DOCTYPE svg PUBLIC "-//W3C//DTD SVG 20010904//EN"
 "http://www.w3.org/TR/2001/REC-SVG-20010904/DTD/svg10.dtd">
<svg version="1.0" xmlns="http://www.w3.org/2000/svg"
 width="1121.000000pt" height="1121.000000pt" viewBox="0 0 1121.000000 1121.000000"
 preserveAspectRatio="xMidYMid meet">
<metadata>
Created by potrace 1.14, written by Peter Selinger 2001-2017
</metadata>
<g transform="translate(0.000000,1121.000000) scale(0.100000,-0.100000)"
fill="#000000" stroke="none">
<path d="M0 5605 l0 -5605 5605 0 5605 0 0 5605 0 5605 -5605 0 -5605 0 0
-5605z m5677 4303 c-3 -8 -6 -5 -6 6 -1 11 2 17 5 13 3 -3 4 -12 1 -19z m834
-45 c-12 -20 -14 -14 -5 12 4 9 9 14 11 11 3 -2 0 -13 -6 -23z m-824 -40 c-3
-10 -5 -4 -5 12 0 17 2 24 5 18 2 -7 2 -21 0 -30z m50 -5 c-3 -7 -5 -2 -5 12
0 14 2 19 5 13 2 -7 2 -19 0 -25z m-97 12 c0 -5 -5 -10 -11 -10 -5 0 -7 5 -4
10 3 6 8 10 11 10 2 0 4 -4 4 -10z m-89 -56 c-9 -28 -9 -29 -10 -3 -1 14 2 29
6 32 11 12 13 2 4 -29z m-80 -28 c5 3 4 -6 -2 -19 -14 -30 -39 -31 -39 -1 0
22 22 39 28 22 2 -4 8 -6 13 -2z m-174 -138 c-3 -8 -6 -5 -6 6 -1 11 2 17 5
13 3 -3 4 -12 1 -19z m-287 -183 c0 -2 -16 -15 -37 -31 l-36 -27 22 30 c12 16
29 30 37 30 8 0 14 -1 14 -2z m-210 -115 c0 -5 -5 -10 -11 -10 -5 0 -7 5 -4
10 3 6 8 10 11 10 2 0 4 -4 4 -10z m1917 -76 c-3 -3 -12 -4 -19 -1 -8 3 -5 6
6 6 11 1 17 -2 13 -5z m-1563 -273 c-2 -3 -12 3 -22 13 -16 17 -16 18 5 5 12
-7 20 -15 17 -18z m-724 -115 c0 -3 -4 -8 -10 -11 -5 -3 -10 -1 -10 4 0 6 5
11 10 11 6 0 10 -2 10 -4z m3135 -226 c3 -5 1 -10 -4 -10 -6 0 -11 5 -11 10 0
6 2 10 4 10 3 0 8 -4 11 -10z m-165 -95 c0 -5 -5 -3 -10 5 -5 8 -10 10 -10 5
0 -6 5 -16 11 -22 7 -7 7 -13 1 -17 -16 -10 -25 12 -17 42 5 20 8 23 16 11 5
-7 9 -18 9 -24z m38 -49 c14 5 14 4 2 -4 -8 -6 -18 -8 -22 -6 -4 3 -8 1 -8 -5
0 -5 5 -13 10 -16 6 -3 10 -12 9 -18 0 -9 -2 -9 -6 1 -2 6 -10 12 -17 12 -28
0 -33 21 -12 45 19 22 21 23 24 5 2 -13 9 -17 20 -14z m420 -1140 c9 -20 8
-25 -7 -29 -14 -3 -18 2 -18 24 0 35 10 37 25 5z m-3584 -61 c-4 -8 -11 -15
-16 -15 -6 0 -5 6 2 15 7 8 14 15 16 15 2 0 1 -7 -2 -15z m3535 -17 c13 -21
13 -22 -2 -10 -9 8 -21 11 -26 7 -7 -3 -8 0 -5 9 8 22 17 20 33 -6z m-3512
-23 c0 -10 -4 -12 -12 -5 -7 5 -16 6 -20 2 -5 -4 -5 -1 -1 6 10 17 33 15 33
-3z m-74 -10 c-3 -9 -8 -14 -10 -11 -3 3 -2 9 2 15 9 16 15 13 8 -4z m-36 -54
c-9 -17 -12 -31 -9 -32 4 0 19 -3 35 -5 22 -4 27 -1 27 16 0 11 -4 19 -9 18
-5 -2 -9 0 -10 5 -3 20 0 27 10 27 5 0 7 -4 4 -10 -10 -17 7 -11 20 7 7 9 17
13 25 8 8 -5 9 -10 1 -14 -7 -5 -8 -17 -1 -41 7 -26 6 -37 -5 -50 -11 -13 -12
-19 -3 -28 9 -9 9 -12 1 -12 -7 0 -14 -8 -17 -18 -4 -10 -14 -27 -24 -38 -9
-11 -26 -30 -37 -43 l-20 -24 23 5 c29 8 28 -5 -3 -22 -17 -9 -23 -20 -20 -34
2 -12 4 -24 4 -28 1 -5 8 -8 16 -8 9 0 12 -6 9 -15 -4 -8 -10 -12 -15 -9 -5 3
-9 0 -9 -5 0 -6 6 -11 13 -11 6 -1 1 -10 -12 -20 -21 -18 -21 -20 -5 -20 16 0
17 -2 4 -10 -11 -8 -12 -12 -3 -18 17 -11 8 -70 -14 -94 -17 -19 -22 -45 -22
-115 0 -20 -7 -36 -18 -42 -10 -6 -13 -11 -7 -11 18 0 15 -58 -4 -65 -12 -4
-13 -8 -4 -14 6 -4 12 -18 12 -32 1 -42 -5 -98 -11 -103 -3 -3 -4 -35 -2 -71
1 -36 -2 -76 -7 -89 -7 -18 -5 -26 6 -30 8 -3 14 -12 14 -21 0 -8 3 -14 8 -14
19 3 33 -2 27 -11 -3 -5 -1 -10 6 -10 6 0 1 -9 -12 -21 -23 -19 -23 -20 -3
-14 18 5 22 0 27 -30 3 -20 2 -48 -4 -62 -5 -15 -8 -32 -5 -39 3 -7 -6 -23
-19 -36 -22 -22 -23 -24 -7 -42 14 -15 14 -18 2 -14 -8 2 -20 -1 -27 -8 -15
-15 -17 -38 -3 -29 13 8 13 -8 1 -20 -6 -6 -4 -17 5 -29 14 -20 14 -20 15 0 0
19 1 19 8 -1 6 -14 2 -25 -13 -38 -17 -15 -17 -18 -4 -13 10 3 20 1 23 -4 3
-4 0 -10 -6 -12 -6 -2 -13 -17 -15 -34 -2 -17 -7 -42 -13 -55 -11 -30 -3 -88
10 -67 6 9 9 4 9 -15 0 -16 -4 -26 -9 -23 -5 3 -11 0 -13 -7 -8 -20 -7 -157 1
-157 4 0 7 -9 7 -20 0 -11 -3 -20 -6 -20 -10 0 -4 -91 6 -99 10 -6 11 -19 13
-124 0 -38 5 -66 10 -63 4 3 6 -6 3 -19 -3 -16 0 -25 8 -25 10 0 9 -4 -1 -16
-8 -10 -9 -18 -3 -22 13 -9 36 -121 28 -134 -4 -6 2 -8 12 -6 11 2 18 11 16
19 -3 12 -1 12 10 1 11 -11 10 -16 -5 -27 -15 -11 -16 -17 -6 -39 7 -14 17
-22 23 -19 6 4 5 0 -2 -9 -10 -13 -10 -17 2 -21 8 -3 20 -16 26 -28 8 -15 9
-19 1 -15 -14 9 -14 0 0 -25 18 -35 42 -58 52 -52 6 4 7 1 2 -7 -4 -7 -2 -16
6 -21 21 -13 29 -11 22 8 -5 13 -3 15 13 8 10 -4 30 -8 43 -8 14 1 19 -2 12
-6 -8 -6 -9 -15 -2 -34 6 -15 8 -27 5 -27 -4 0 -1 -6 5 -14 8 -10 9 -16 1 -21
-5 -3 -10 -1 -10 5 0 6 -4 9 -9 6 -5 -4 -12 0 -14 6 -3 8 -6 6 -6 -4 -1 -10 4
-18 10 -18 6 0 8 -7 5 -16 -5 -13 -4 -14 7 -5 11 8 18 6 32 -9 10 -11 13 -20
7 -20 -7 0 -12 -5 -12 -11 0 -16 25 -5 26 12 1 8 2 19 3 24 0 6 11 16 22 24
19 11 21 11 16 -3 -4 -9 -2 -16 4 -16 15 0 28 43 17 57 -6 7 -7 24 -4 38 4 14
2 34 -3 43 -7 14 -5 22 8 33 9 9 22 14 29 11 8 -2 11 5 10 19 -2 13 2 24 7 24
6 0 15 3 21 7 6 4 11 1 11 -7 0 -8 -4 -15 -7 -15 -4 0 -10 -14 -14 -31 -5 -27
-8 -30 -21 -19 -12 10 -15 9 -15 -5 0 -13 6 -15 33 -10 l32 6 -27 -21 c-31
-24 -38 -53 -11 -43 11 4 14 3 9 -5 -4 -7 -15 -12 -26 -12 -12 0 -17 -5 -13
-18 6 -23 -14 -75 -27 -67 -5 3 -17 -6 -26 -20 -9 -14 -23 -25 -30 -25 -13 0
-15 -24 -3 -45 4 -5 9 -22 13 -37 6 -26 26 -40 26 -18 0 6 5 10 11 10 5 0 7
-5 3 -12 -5 -8 -2 -9 9 -5 11 4 17 1 17 -8 0 -8 -4 -15 -10 -15 -5 0 -10 -7
-10 -16 0 -13 3 -14 14 -5 10 9 15 8 20 -4 3 -9 0 -15 -9 -15 -8 0 -15 -7 -15
-16 0 -14 3 -14 15 -4 8 7 15 9 16 4 0 -5 2 -19 5 -32 3 -20 2 -21 -16 -12
-11 6 -20 14 -20 18 0 4 -12 21 -28 37 -15 17 -27 35 -27 40 0 6 -18 38 -40
73 -29 45 -45 61 -57 58 -10 -2 -18 0 -18 5 0 5 4 9 9 9 4 0 6 11 3 25 -2 14
-8 25 -13 25 -5 0 -9 -2 -9 -4 0 -2 -3 -12 -7 -22 -5 -13 -3 -15 8 -9 11 7 12
6 3 -6 -6 -8 -12 -30 -13 -49 -1 -19 -3 -71 -5 -115 -2 -44 -4 -80 -6 -80 -1
0 -3 -41 -4 -90 -1 -50 -4 -95 -8 -100 -3 -6 -11 -57 -17 -115 -18 -171 -21
-192 -31 -249 -11 -61 -13 -64 -32 -59 -11 2 -11 26 -1 143 6 77 15 224 19
328 l6 187 -28 -10 c-56 -21 -119 -53 -151 -76 -17 -13 -36 -24 -42 -24 -6 0
-11 -4 -11 -10 0 -5 -5 -10 -10 -10 -6 0 -41 -31 -78 -68 -82 -84 -102 -109
-95 -116 4 -3 1 -6 -6 -6 -7 0 -9 -4 -6 -10 3 -5 1 -10 -5 -10 -9 0 -57 -90
-66 -122 -1 -5 -2 -10 -3 -13 0 -3 0 -7 2 -8 1 -2 -4 -11 -12 -20 -7 -10 -10
-17 -6 -17 4 0 2 -7 -5 -15 -7 -8 -9 -15 -5 -15 5 0 0 -10 -11 -22 -12 -13
-13 -18 -4 -13 13 8 13 7 1 -8 -7 -9 -10 -17 -6 -17 4 0 2 -7 -5 -15 -7 -8 -9
-15 -5 -15 4 0 3 -6 -2 -12 -10 -13 -33 -77 -37 -103 -1 -8 -5 -18 -9 -21 -4
-4 -7 -20 -7 -36 0 -15 -4 -28 -8 -28 -5 0 -8 -10 -7 -22 1 -12 -7 -44 -17
-70 -10 -27 -21 -66 -24 -86 -4 -20 -7 -41 -8 -47 -1 -5 -5 -15 -8 -20 -4 -6
-5 -23 -4 -38 2 -15 -1 -30 -6 -33 -4 -3 -6 -10 -2 -15 3 -5 0 -17 -8 -26 -9
-12 -9 -15 0 -9 6 4 12 3 12 -1 0 -5 -6 -15 -12 -22 -11 -11 -10 -12 0 -6 12
6 12 3 2 -15 -7 -13 -7 -20 -2 -16 7 4 9 -10 7 -39 -3 -34 -1 -44 8 -38 8 4 7
1 -1 -10 -8 -9 -11 -20 -9 -25 3 -4 2 -14 -3 -22 -15 -25 -23 122 -12 235 13
126 46 273 97 429 20 60 34 111 31 113 -2 3 -16 -14 -31 -37 -36 -56 -42 -45
-9 15 l27 47 -24 -13 c-13 -7 -27 -12 -31 -11 -5 1 -8 -2 -8 -7 0 -11 -56 -41
-76 -41 -7 0 -30 -15 -51 -32 -23 -21 -34 -27 -30 -15 3 9 2 17 -2 17 -5 0
-11 -5 -13 -12 -2 -6 -15 -13 -28 -15 -13 -2 -27 -7 -30 -11 -8 -13 -84 -57
-90 -53 -3 2 -9 -6 -15 -18 -5 -11 -17 -21 -25 -21 -13 0 -13 1 0 10 12 8 12
10 -3 16 -9 3 -25 3 -34 -1 -10 -5 -29 -10 -43 -12 -14 -2 -26 -7 -28 -11 -1
-4 -7 -14 -12 -22 -9 -13 -11 -13 -19 -1 -8 12 -14 10 -38 -8 -33 -26 -102
-71 -108 -71 -3 0 -5 7 -5 15 0 34 -52 11 -168 -75 -27 -20 -36 -22 -51 -13
-14 9 -23 9 -37 -1 -11 -7 -32 -16 -48 -20 -47 -12 -375 -169 -456 -219 -19
-12 -39 -22 -45 -24 -26 -5 -183 -70 -205 -85 -26 -16 -47 -24 -90 -32 -14 -2
-38 -9 -53 -15 -16 -6 -34 -11 -40 -11 -7 1 40 23 103 51 163 71 402 181 559
256 74 36 153 72 175 81 23 8 50 21 61 29 11 7 26 13 33 13 8 0 49 16 92 34
43 19 114 47 157 61 43 15 97 35 120 46 24 10 45 19 47 19 5 0 191 78 261 109
184 83 270 120 297 126 36 9 41 16 78 110 46 115 95 190 175 269 89 87 171
146 270 193 l78 37 -6 175 c-3 97 -9 190 -12 206 -8 38 -57 145 -67 145 -5 0
-8 11 -8 25 0 13 -7 42 -15 62 -36 96 -88 332 -102 465 -3 27 -8 46 -12 44 -4
-3 -5 8 -3 25 2 16 0 29 -6 29 -6 0 -7 13 -2 35 4 20 4 38 -1 41 -6 3 -6 12 0
22 5 9 5 26 0 39 -5 13 -4 25 1 28 6 3 1 15 -9 27 -17 18 -19 54 -2 44 3 -2 7
11 8 30 1 19 3 40 4 47 1 6 0 19 -2 27 -2 8 1 14 8 13 22 -5 34 33 21 63 -11
22 -10 28 6 40 18 12 18 15 2 39 -10 15 -12 25 -5 25 7 0 9 9 5 26 -4 16 -3
23 3 20 5 -4 12 -2 15 3 3 5 -1 12 -10 15 -10 4 -14 14 -11 25 2 11 -3 25 -14
35 -11 9 -19 21 -20 28 -1 7 -2 27 -4 43 -1 17 -5 62 -9 100 -8 80 -10 341 -3
352 3 5 8 41 12 80 3 40 10 87 16 105 5 18 9 51 9 73 0 36 10 89 41 220 5 22
12 60 14 84 3 24 10 52 16 63 6 11 8 31 4 45 -4 19 -1 26 15 30 11 3 20 10 20
17 0 6 5 3 11 -7 6 -9 15 -15 21 -11 6 4 5 10 -3 15 -11 7 -10 9 4 9 9 0 17 5
17 12 0 6 3 9 6 5 3 -3 -1 -20 -9 -36z m-557 -11 c0 -5 -4 -10 -10 -10 -5 0
-10 5 -10 10 0 6 5 10 10 10 6 0 10 -4 10 -10z m-56 -14 c-4 -10 2 -12 23 -10
27 4 27 4 5 -6 -13 -5 -21 -14 -17 -20 3 -5 0 -7 -8 -4 -8 3 -18 1 -22 -5 -9
-15 -24 -14 -21 2 6 34 19 57 31 57 8 0 12 -6 9 -14z m4102 -21 c4 -8 10 -13
15 -10 4 3 13 -4 19 -16 8 -15 9 -19 1 -15 -14 9 -14 4 -1 -28 8 -22 7 -26 -8
-27 -15 -1 -15 -2 0 -6 9 -2 18 -10 21 -17 7 -17 -27 -88 -38 -79 -4 5 -5 0
-2 -10 4 -10 1 -39 -6 -65 -13 -51 -37 -86 -45 -64 -2 6 -12 12 -23 12 -13 0
-19 7 -19 21 0 11 -4 17 -10 14 -5 -3 -10 -1 -10 4 0 6 5 11 10 11 6 0 10 12
10 26 0 14 -4 23 -8 20 -5 -3 -9 1 -9 9 0 8 4 15 8 15 4 0 5 10 1 22 -3 13 -1
19 5 15 6 -4 13 -20 17 -37 3 -18 10 -29 16 -25 7 4 7 12 0 25 -13 24 -13 33
0 25 5 -3 2 7 -7 23 -11 19 -14 35 -8 48 4 10 7 24 6 29 -2 6 1 7 5 3 4 -4 13
-3 21 3 10 9 17 8 29 -2 14 -12 14 -9 -1 26 -9 22 -19 46 -22 53 -3 7 2 12 11
12 9 0 19 -7 22 -15z m114 -17 c0 -4 -6 -5 -14 -2 -8 3 -12 12 -9 21 5 12 7
12 14 1 5 -7 9 -16 9 -20z m-152 -33 c-3 -3 -9 2 -12 12 -6 14 -5 15 5 6 7 -7
10 -15 7 -18z m-4055 -5 c-3 -11 -9 -20 -13 -20 -5 0 -6 9 -3 20 3 11 9 20 13
20 5 0 6 -9 3 -20z m4155 -36 c-3 -14 -5 -12 -10 9 -3 19 -2 25 4 19 6 -6 8
-18 6 -28z m-4106 14 c-7 -7 -12 -20 -12 -29 0 -9 -6 -21 -13 -27 -10 -9 -13
-4 -13 24 0 24 4 33 13 30 7 -3 13 -1 13 4 0 6 5 10 12 10 9 0 9 -3 0 -12z
m-52 -27 c0 -5 -7 -12 -16 -15 -14 -5 -15 -4 -4 9 14 17 20 19 20 6z m3356
-47 c10 -8 13 -13 7 -9 -8 4 -13 0 -13 -10 0 -10 5 -13 13 -9 8 5 8 2 -2 -9
-12 -15 -11 -17 5 -18 11 0 14 -3 6 -6 -6 -2 -10 -9 -6 -14 10 -16 24 -10 24
11 0 17 2 18 14 8 7 -7 13 -19 13 -28 0 -8 5 -26 11 -40 9 -22 11 -22 12 -5 1
19 1 19 11 1 8 -13 8 -20 -1 -26 -9 -5 -8 -9 3 -13 10 -4 15 -18 14 -42 -1
-22 5 -42 14 -49 8 -6 25 -42 39 -81 23 -65 25 -84 25 -250 0 -99 -3 -216 -7
-260 -4 -44 -10 -109 -13 -144 -3 -36 -8 -67 -13 -70 -4 -3 -8 -19 -8 -36 -1
-25 -5 -58 -13 -107 0 -4 -14 -5 -29 -3 -20 2 -29 -1 -29 -11 0 -9 4 -10 11
-5 7 6 16 4 24 -5 9 -10 9 -14 1 -14 -6 0 -9 -7 -5 -15 3 -8 1 -15 -5 -15 -6
0 -8 -7 -5 -15 3 -8 9 -23 12 -32 5 -17 5 -17 -6 0 -6 9 -15 17 -20 17 -13 0
0 -38 16 -44 17 -7 19 -57 2 -74 -9 -9 -9 -12 1 -12 7 0 9 -4 6 -10 -3 -5 -1
-10 6 -10 8 0 8 -4 1 -13 -6 -7 -7 -18 -3 -26 5 -7 6 -22 4 -32 -3 -10 -1 -19
4 -19 8 0 11 -130 3 -137 -1 -2 -3 -6 -4 -10 -1 -5 -5 -14 -10 -22 -6 -9 -5
-12 1 -8 5 3 9 -16 10 -48 0 -30 -3 -52 -8 -49 -4 2 -5 -11 -2 -31 4 -23 2
-35 -6 -35 -6 0 -11 -15 -11 -34 0 -95 -101 -478 -108 -412 -3 28 13 96 43
179 7 20 10 37 6 37 -4 0 -7 9 -7 20 0 11 4 20 8 20 4 0 5 7 2 15 -4 9 0 15
10 15 9 0 16 7 16 15 0 9 -6 12 -16 8 -14 -5 -15 -3 -6 13 7 13 7 26 -4 45
-10 21 -11 28 -2 31 13 5 18 98 6 98 -4 0 -4 7 -1 17 4 9 2 14 -3 10 -11 -6
-10 56 1 73 3 5 1 11 -3 14 -5 3 -7 17 -4 32 3 18 0 30 -12 36 -9 5 -16 16
-16 25 0 12 3 13 15 3 12 -10 15 -8 20 12 3 12 5 37 5 53 0 17 1 48 3 69 1 26
-3 41 -12 44 -8 3 -11 0 -7 -7 13 -21 17 -63 6 -56 -6 4 -9 13 -6 21 3 8 1 14
-3 14 -16 0 -6 29 15 45 10 8 15 15 9 15 -9 0 -11 22 -6 76 0 8 6 12 11 9 6
-4 10 5 10 19 0 14 -4 26 -10 26 -5 0 -7 -8 -3 -17 4 -11 2 -15 -3 -10 -5 5
-9 19 -9 32 -1 18 2 21 11 14 8 -6 14 -7 18 0 4 5 2 12 -4 16 -6 4 -7 11 -4
17 5 7 1 9 -9 5 -12 -4 -14 -2 -10 10 4 11 2 14 -5 9 -7 -4 -12 -1 -12 9 0 9
5 13 10 10 6 -3 10 -1 10 5 0 6 -7 13 -15 16 -17 7 -21 44 -4 44 5 0 7 5 4 11
-12 18 4 59 20 53 12 -5 14 5 11 60 -2 38 0 63 6 60 5 -3 6 6 3 20 -3 14 -7
37 -10 51 -4 17 -1 24 7 23 15 -3 17 49 5 95 -5 20 -4 27 3 22 7 -4 9 2 6 17
-17 81 -16 108 1 108 11 0 14 3 7 8 -18 12 -46 76 -34 80 7 3 6 10 -1 24 -8
15 -8 19 0 14 16 -10 14 0 -4 18 -14 13 -13 17 7 35 12 12 16 21 9 21 -7 0
-10 4 -6 9 3 5 1 12 -5 16 -5 3 -10 17 -10 31 0 14 4 23 9 20 4 -3 6 6 3 19
-2 14 -8 28 -13 31 -15 9 -11 46 4 38 9 -5 9 -4 0 6 -6 7 -9 19 -6 28 4 9 2
13 -4 9 -5 -3 -16 6 -24 21 -7 15 -24 39 -38 55 -17 19 -20 27 -10 27 8 0 10
3 4 8 -17 12 -12 82 5 82 12 1 12 3 -2 14 -10 7 -15 16 -11 20 4 3 9 2 13 -4
3 -5 15 -17 26 -26z m-3354 -46 c-7 -7 -12 -8 -12 -2 0 14 12 26 19 19 2 -3
-1 -11 -7 -17z m24 -90 c-19 -26 -22 -7 -4 25 7 13 13 17 15 10 3 -7 -3 -23
-11 -35z m3964 -60 c0 -4 -7 -8 -15 -8 -8 0 -15 4 -15 8 0 5 7 9 15 9 8 0 15
-4 15 -9z m50 -18 c0 -11 1 -23 2 -27 4 -15 14 -103 12 -103 -1 0 -10 -3 -18
-6 -13 -5 -16 0 -14 24 1 17 -4 42 -12 56 -14 28 -5 50 10 26 7 -11 9 -6 6 18
-2 17 1 32 5 32 5 0 9 -9 9 -20z m-3970 -22 c0 -19 -2 -20 -10 -8 -13 19 -13
30 0 30 6 0 10 -10 10 -22z m-30 -38 c0 -5 -5 -10 -11 -10 -5 0 -7 5 -4 10 3
6 8 10 11 10 2 0 4 -4 4 -10z m4007 -96 c-3 -3 -12 -4 -19 -1 -8 3 -5 6 6 6
11 1 17 -2 13 -5z m-31 -29 c-3 -20 -16 -31 -16 -13 0 13 8 28 16 28 1 0 1 -7
0 -15z m24 -56 c0 -6 -4 -7 -10 -4 -5 3 -10 11 -10 16 0 6 5 7 10 4 6 -3 10
-11 10 -16z m-3995 -49 c-9 -18 -18 -30 -21 -28 -2 3 3 19 12 37 9 18 18 30
21 28 2 -3 -3 -19 -12 -37z m-60 -211 c-36 -109 -49 -166 -55 -243 l-8 -101 2
105 c2 95 7 118 50 248 27 79 50 141 53 138 3 -2 -16 -69 -42 -147z m4007 0
c19 -40 45 -181 52 -284 l5 -70 -13 85 c-26 165 -48 255 -68 284 -13 18 -16
27 -7 24 8 -2 21 -20 31 -39z m-3857 -64 c-19 -37 -53 -90 -74 -118 -73 -98
-76 -108 -75 -252 1 -87 -1 -118 -7 -95 -4 19 -7 82 -5 140 3 119 18 163 90
260 23 30 54 75 69 99 42 65 44 42 2 -34z m3806 -378 c11 -61 11 -207 -1 -262
-5 -27 -7 -6 -3 65 6 125 -7 202 -46 284 -16 34 -32 77 -35 96 -5 25 5 12 34
-49 23 -46 45 -106 51 -134z m-3988 -112 c6 -42 5 -45 -3 -20 -6 17 -13 73
-15 125 -3 92 -3 93 4 20 4 -41 11 -97 14 -125z m294 110 c-3 -29 -10 -62 -16
-72 -9 -15 -10 -13 -5 12 3 17 8 49 11 73 8 62 17 52 10 -13z m3345 -137 c-8
-8 -9 -4 -5 13 4 13 8 18 11 10 2 -7 -1 -18 -6 -23z m405 -20 c-3 -8 -6 -5 -6
6 -1 11 2 17 5 13 3 -3 4 -12 1 -19z m-10 -50 c-3 -7 -5 -2 -5 12 0 14 2 19 5
13 2 -7 2 -19 0 -25z m-3832 -13 c-3 -14 -7 -36 -10 -49 -3 -14 -1 -28 5 -31
18 -11 11 -32 -25 -75 -27 -32 -35 -51 -36 -83 l-1 -42 -14 54 -15 54 32 33
c29 30 31 36 25 78 -8 49 5 86 30 86 10 0 13 -7 9 -25z m3815 -65 c0 -5 -5
-10 -11 -10 -5 0 -7 5 -4 10 3 6 8 10 11 10 2 0 4 -4 4 -10z m-186 -98 c11
-21 12 -38 6 -68 -13 -53 -14 -49 24 -86 33 -32 34 -34 25 -87 -11 -68 -19
-77 -19 -20 0 38 -5 49 -36 78 -27 24 -33 35 -24 41 9 6 8 10 -5 17 -14 8 -15
14 -6 31 6 11 11 43 11 71 0 28 2 51 5 51 2 0 11 -13 19 -28z m-404 -132 c0
-5 -4 -10 -10 -10 -5 0 -10 5 -10 10 0 6 5 10 10 10 6 0 10 -4 10 -10z m-2456
-607 c-16 -12 -16 -13 -1 -13 19 0 22 -13 8 -39 -12 -22 2 -46 23 -38 19 8 19
8 5 -31 -7 -20 -15 -29 -25 -25 -8 3 -14 0 -14 -6 0 -6 -4 -11 -9 -11 -11 0
-2 48 11 56 5 3 4 12 -3 21 -12 13 -20 79 -13 94 2 3 11 6 20 6 15 0 15 -2 -2
-14z m-131 -38 c-3 -9 -8 -14 -10 -11 -3 3 -2 9 2 15 9 16 15 13 8 -4z m2134
-57 c-3 -8 -6 -5 -6 6 -1 11 2 17 5 13 3 -3 4 -12 1 -19z m-37 2 c8 -5 11 -10
5 -10 -5 0 -17 5 -25 10 -8 5 -10 10 -5 10 6 0 17 -5 25 -10z m432 -56 c-11
-44 -17 -407 -7 -446 4 -16 22 -33 48 -47 23 -12 33 -19 22 -15 -11 4 -31 9
-44 12 -22 4 -23 3 -17 -34 19 -131 41 -267 62 -390 25 -144 30 -224 16 -224
-14 0 -32 23 -32 42 0 10 -4 18 -9 18 -6 0 -8 9 -6 19 2 11 -3 25 -11 32 -11
9 -12 15 -3 25 9 11 8 14 0 14 -7 0 -9 5 -6 10 4 6 2 17 -5 25 -6 7 -13 35
-16 62 -7 66 -11 84 -22 114 -7 19 -7 30 0 37 8 8 7 13 -5 18 -13 5 -14 10 -6
25 9 17 6 23 -12 21 -3 -1 -4 10 -1 24 2 13 -2 32 -9 41 -8 9 -9 14 -2 10 20
-12 20 16 0 36 -10 10 -15 22 -11 25 3 4 9 1 11 -6 3 -6 9 -9 14 -6 6 3 4 11
-5 17 -9 7 -17 28 -20 47 -2 19 -5 40 -6 45 -1 6 -1 12 0 15 7 19 8 46 1 55
-4 5 -7 21 -7 35 1 14 -3 28 -9 32 -6 5 -4 8 4 8 11 0 9 5 -5 22 -10 12 -13
18 -6 14 8 -5 11 -1 9 13 -2 11 -6 24 -10 27 -4 4 0 18 8 31 9 13 12 29 8 36
-11 18 -11 56 1 54 6 -1 22 21 36 48 14 28 29 53 35 57 5 4 6 10 2 14 -4 4 -2
13 5 21 17 21 20 9 10 -33z m-444 29 c-4 -15 13 -53 23 -53 6 0 7 -5 3 -11 -4
-8 -14 1 -25 22 -21 39 -23 49 -9 49 6 0 9 -3 8 -7z m-2054 -42 c4 -5 -1 -8
-9 -7 -21 3 -31 16 -12 16 9 0 18 -4 21 -9z m49 -26 c-3 -9 -8 -14 -10 -11 -3
3 -2 9 2 15 9 16 15 13 8 -4z m2070 -31 c-5 -14 -3 -15 15 -5 20 11 20 10 5
-19 -8 -17 -12 -37 -10 -45 3 -7 -1 -16 -10 -19 -19 -8 -19 -8 -27 29 -4 17
-3 25 1 18 6 -8 14 -9 23 -3 10 7 11 10 3 10 -7 0 -13 7 -13 15 0 8 -4 15 -10
15 -5 0 -10 5 -10 11 0 5 5 7 10 4 6 -3 10 -1 10 5 0 6 4 9 10 5 5 -3 6 -13 3
-21z m197 -9 c7 -9 8 -15 2 -15 -5 0 -12 7 -16 15 -3 8 -4 15 -2 15 2 0 9 -7
16 -15z m-120 -15 c0 -5 -5 -10 -11 -10 -5 0 -7 5 -4 10 3 6 8 10 11 10 2 0 4
-4 4 -10z m-10 -42 c0 -18 -38 -50 -45 -38 -3 5 4 11 15 15 20 7 28 25 10 25
-5 0 -10 9 -10 21 0 18 2 19 15 5 8 -8 15 -21 15 -28z m-2127 12 c3 -11 1 -20
-4 -20 -5 0 -9 9 -9 20 0 11 2 20 4 20 2 0 6 -9 9 -20z m27 10 c0 -5 -4 -10
-10 -10 -5 0 -10 5 -10 10 0 6 5 10 10 10 6 0 10 -4 10 -10z m1991 -17 c13
-16 12 -17 -3 -4 -10 7 -18 15 -18 17 0 8 8 3 21 -13z m299 1 c0 -2 -7 -4 -15
-4 -8 0 -15 4 -15 10 0 5 7 7 15 4 8 -4 15 -8 15 -10z m-116 -60 c3 -8 2 -12
-4 -9 -6 3 -10 10 -10 16 0 14 7 11 14 -7z m61 6 c-3 -5 -12 -10 -18 -10 -7 0
-6 4 3 10 19 12 23 12 15 0z m41 -1 c3 -6 2 -14 -3 -18 -5 -3 -12 -14 -16 -23
-8 -22 -23 -23 -31 -3 -3 9 1 18 9 21 8 4 15 12 15 20 0 17 16 18 26 3z m-256
-39 c12 -23 12 -24 -3 -11 -10 7 -17 20 -17 29 0 18 3 16 20 -18z m-2009 -37
c-12 -20 -14 -14 -5 12 4 9 9 14 11 11 3 -2 0 -13 -6 -23z m2229 -5 c0 -5 -4
-6 -10 -3 -5 3 -10 -1 -10 -9 0 -9 -5 -16 -11 -16 -6 0 -9 -7 -6 -15 4 -8 2
-17 -4 -20 -5 -4 -13 4 -18 17 -6 13 -10 17 -10 10 -1 -7 -6 -10 -12 -6 -6 3
2 14 20 25 17 10 31 26 31 35 0 13 3 14 15 4 8 -7 15 -17 15 -22z m-2247 -10
c16 -15 9 -68 -9 -68 -10 0 -11 6 -4 25 6 15 6 26 0 30 -11 7 -14 25 -5 25 3
0 12 -5 18 -12z m2187 -74 c0 -8 -4 -14 -10 -14 -5 0 -10 -9 -10 -20 0 -11 -5
-20 -10 -20 -6 0 -27 -26 -47 -57 -20 -32 -37 -60 -39 -62 -2 -2 -16 7 -31 19
-24 20 -25 22 -6 18 15 -4 23 0 26 14 4 15 2 18 -11 13 -14 -5 -15 -4 -4 7 7
7 19 13 27 13 8 0 15 4 14 8 0 5 9 17 20 26 11 10 18 21 14 25 -3 3 3 6 15 6
12 0 22 5 22 10 0 6 -4 10 -8 10 -5 0 -9 6 -9 13 0 9 9 12 24 9 13 -2 23 -11
23 -18z m-2330 2 c0 -3 -4 -8 -10 -11 -5 -3 -10 -1 -10 4 0 6 5 11 10 11 6 0
10 -2 10 -4z m2480 -46 c0 -5 -2 -10 -4 -10 -3 0 -8 5 -11 10 -3 6 -1 10 4 10
6 0 11 -4 11 -10z m-2240 -106 c0 -8 -5 -12 -10 -9 -6 4 -8 11 -5 16 9 14 15
11 15 -7z m1921 -79 c-18 -21 -31 -29 -31 -21 0 8 5 18 12 22 8 5 5 11 -7 20
-10 8 -15 17 -12 21 4 3 13 -1 20 -11 12 -17 14 -17 28 0 11 13 11 18 1 21 -6
3 -9 10 -5 16 4 7 10 3 16 -11 8 -17 4 -28 -22 -57z m594 2 c6 -5 -9 0 -32 12
-23 11 -45 26 -49 33 -7 12 61 -26 81 -45z m-2451 -42 c26 -30 42 -55 37 -55
-6 0 -11 5 -11 10 0 6 -7 10 -15 10 -8 0 -15 3 -15 8 0 4 -14 22 -30 41 -32
36 -35 41 -22 41 5 0 30 -25 56 -55z m1816 41 c0 -3 -4 -8 -10 -11 -5 -3 -10
-1 -10 4 0 6 5 11 10 11 6 0 10 -2 10 -4z m696 -37 c4 -8 1 -8 -14 0 -12 6
-24 16 -28 22 -4 8 -1 8 14 0 12 -6 24 -16 28 -22z m-705 -17 c-7 -2 -18 1
-23 6 -8 8 -4 9 13 5 13 -4 18 -8 10 -11z m766 -39 c73 -69 236 -283 215 -283
-4 0 -22 24 -39 53 -18 28 -44 66 -58 82 -14 17 -35 41 -47 55 -11 14 -43 49
-71 78 -59 60 -59 70 0 15z m-797 -8 c-7 -9 -15 -13 -19 -10 -3 3 1 10 9 15
21 14 24 12 10 -5z m1077 -362 c46 -72 59 -83 149 -139 55 -34 117 -70 139
-81 38 -20 96 -52 350 -192 61 -34 142 -82 180 -106 75 -49 282 -153 368 -185
29 -11 115 -54 192 -96 156 -84 384 -196 459 -226 27 -10 109 -48 183 -84 74
-36 155 -73 181 -83 65 -26 180 -84 357 -180 83 -44 156 -81 163 -81 7 0 12
-14 12 -39 0 -32 -3 -39 -17 -36 -32 5 -36 -8 -7 -21 23 -10 25 -13 9 -13 -26
-1 -49 14 -42 26 9 14 -36 50 -85 70 -39 15 -40 17 -18 25 18 7 26 4 37 -12 8
-11 18 -18 23 -15 5 3 19 1 30 -5 15 -8 20 -8 20 1 0 6 -9 13 -20 16 -11 3
-20 10 -20 15 0 5 -4 7 -9 3 -5 -3 -12 -1 -16 5 -3 5 -17 10 -31 10 -13 0 -24
6 -25 13 0 19 -141 81 -304 134 -11 4 -25 11 -31 17 -6 6 -22 18 -34 26 -12 8
-32 22 -44 31 -47 36 -128 71 -139 60 -8 -8 0 -20 28 -43 98 -81 224 -155 235
-138 5 7 9 4 13 -10 6 -22 34 -23 29 -1 -3 17 61 -12 66 -29 4 -12 2 -13 -9
-3 -10 10 -16 10 -28 0 -12 -10 -14 -9 -8 5 4 12 2 15 -9 11 -9 -3 -14 -13
-11 -24 6 -22 -11 -26 -19 -5 -3 8 -12 12 -20 9 -8 -3 -22 1 -32 10 -9 8 -53
33 -97 55 -70 35 -110 69 -145 123 -3 4 -37 19 -75 34 -84 31 -175 75 -175 84
0 12 -66 36 -110 41 -11 1 -12 3 -2 7 15 6 -16 32 -46 38 -9 2 -28 8 -42 14
-24 9 -24 10 -3 10 12 1 25 -4 28 -9 4 -6 10 -8 15 -5 5 3 19 1 30 -5 16 -8
20 -8 20 3 0 13 -13 20 -43 25 -4 1 -14 8 -22 16 -8 8 -25 12 -37 10 -13 -2
-17 -1 -9 2 17 8 -121 77 -199 100 -54 16 -169 68 -180 82 -18 24 -153 102
-176 102 -47 0 55 -94 168 -154 26 -14 49 -30 53 -36 3 -5 15 -10 25 -10 10 0
20 -5 22 -12 3 -7 12 -9 22 -5 9 4 14 12 11 17 -4 6 7 5 26 -3 18 -7 34 -19
37 -27 3 -13 2 -13 -6 -1 -6 8 -17 11 -27 8 -10 -5 -14 -3 -9 4 4 7 1 10 -7 7
-8 -3 -14 -14 -13 -26 0 -13 -4 -18 -13 -15 -7 3 -13 9 -13 13 0 5 -8 7 -17 5
-10 -1 -25 3 -33 10 -8 8 -51 31 -95 53 -56 29 -90 54 -114 84 -52 64 -185
180 -281 244 -95 63 -291 168 -332 178 -16 3 -28 11 -28 16 0 5 -6 7 -14 4 -7
-3 -20 1 -28 9 -8 8 -32 24 -54 36 -21 12 -52 30 -69 41 -36 22 -49 25 -40 8
4 -7 -5 2 -20 20 -15 18 -31 30 -35 27 -8 -5 -71 81 -129 178 -41 68 -14 38
36 -40z m-3920 -183 c-4 -40 -17 -68 -17 -38 0 24 12 78 17 78 3 0 3 -18 0
-40z m4059 -31 c5 -8 9 -8 14 1 4 7 12 -8 20 -38 9 -38 9 -64 1 -104 -6 -29
-12 -62 -14 -73 -2 -11 -7 21 -11 70 -4 50 -14 105 -22 123 -12 30 -4 46 12
21z m31 -416 c-3 -10 -5 -2 -5 17 0 19 2 27 5 18 2 -10 2 -26 0 -35z m1207
-219 c16 -6 23 -34 8 -34 -10 0 -32 22 -32 32 0 10 3 10 24 2z m105 -60 c3 -2
-9 -3 -25 -2 -34 2 -54 15 -54 34 0 10 9 8 38 -7 20 -12 39 -23 41 -25z
m-7495 0 c-21 -15 -41 -30 -44 -33 -3 -4 -20 -18 -39 -31 -24 -17 -38 -21 -49
-13 -11 7 -36 1 -86 -19 -82 -32 -81 -31 -293 -137 -117 -58 -163 -76 -163
-65 0 9 21 24 48 36 26 11 111 51 190 89 78 38 145 69 148 69 3 0 29 11 57 24
29 13 79 33 112 45 33 12 76 31 95 41 52 28 69 24 24 -6z m6193 -11 c-3 -10
-5 -4 -5 12 0 17 2 24 5 18 2 -7 2 -21 0 -30z m1543 -143 c0 -5 -4 -10 -9 -10
-6 0 -13 5 -16 10 -3 6 1 10 9 10 9 0 16 -4 16 -10z m704 -295 c8 -9 17 -15
18 -15 2 1 16 -3 31 -9 16 -6 33 -11 38 -11 5 0 9 -4 9 -9 0 -5 8 -12 18 -14
9 -3 -3 -3 -28 0 -25 3 -51 11 -59 16 -7 6 -22 16 -34 22 -22 11 -35 35 -19
35 6 0 17 -7 26 -15z"/>
<path d="M4195 7110 c3 -5 8 -10 11 -10 2 0 4 5 4 10 0 6 -5 10 -11 10 -5 0
-7 -4 -4 -10z"/>
<path d="M4100 5875 c0 -8 2 -15 4 -15 2 0 6 7 10 15 3 8 1 15 -4 15 -6 0 -10
-7 -10 -15z"/>
<path d="M4077 5810 c3 -11 9 -17 14 -15 10 7 1 35 -11 35 -5 0 -6 -9 -3 -20z"/>
<path d="M4095 5770 c3 -5 8 -10 11 -10 2 0 4 5 4 10 0 6 -5 10 -11 10 -5 0
-7 -4 -4 -10z"/>
<path d="M7630 7022 c0 -5 9 -17 20 -27 19 -17 19 -17 7 9 -12 25 -27 35 -27
18z"/>
<path d="M7620 6990 c6 -11 13 -20 16 -20 2 0 0 9 -6 20 -6 11 -13 20 -16 20
-2 0 0 -9 6 -20z"/>
<path d="M7630 6845 c0 -14 -3 -15 -15 -5 -23 19 -18 -4 5 -25 23 -21 44 -9
38 21 -4 23 -28 31 -28 9z"/>
<path d="M7050 5879 c0 -5 5 -7 10 -4 6 3 10 8 10 11 0 2 -4 4 -10 4 -5 0 -10
-5 -10 -11z"/>
<path d="M7030 5865 c0 -8 4 -15 10 -15 5 0 7 7 4 15 -4 8 -8 15 -10 15 -2 0
-4 -7 -4 -15z"/>
<path d="M6960 5830 c0 -5 5 -10 11 -10 5 0 7 5 4 10 -3 6 -8 10 -11 10 -2 0
-4 -4 -4 -10z"/>
<path d="M7010 5816 c0 -2 7 -9 15 -16 13 -11 14 -10 9 4 -5 14 -24 23 -24 12z"/>
<path d="M4505 4570 c3 -5 8 -10 11 -10 2 0 4 5 4 10 0 6 -5 10 -11 10 -5 0
-7 -4 -4 -10z"/>
<path d="M6511 4404 c0 -11 3 -14 6 -6 3 7 2 16 -1 19 -3 4 -6 -2 -5 -13z"/>
<path d="M9187 2509 c7 -7 15 -10 18 -7 3 3 -2 9 -12 12 -14 6 -15 5 -6 -5z"/>
<path d="M9271 2472 c7 -10 17 -19 23 -19 6 0 37 -12 69 -27 32 -15 63 -26 68
-24 6 2 -23 19 -63 37 -40 18 -81 38 -91 42 -15 8 -16 7 -6 -9z"/>
</g>
</svg>
